<svg width="567" height="236" viewBox="0 0 567 236" xmlns="http://www.w3.org/2000/svg"><title>stokr + smoke</title><g fill="none" fill-rule="evenodd"><g transform="translate(0 44.3)" fill="#AAB8BF"><rect x="107.719" y="32.117" width="46.5" height="46" rx="2"/><path d="M49.685 169.27c18.928 0 28.289-5.917 28.08-17.753 0-3.738-1.871-6.645-5.616-8.722-3.744-2.076-8.424-3.841-14.04-5.295a2199.013 2199.013 0 0 0-18.409-4.672c-6.656-1.661-12.896-3.945-18.72-6.853-5.825-2.907-10.609-6.696-14.353-11.368-3.744-4.673-5.616-10.435-5.616-17.287 0-6.853 1.04-12.72 3.12-17.599 2.08-4.88 5.2-9.085 9.36-12.615 8.945-7.683 21.425-11.525 37.442-11.525 12.896 0 25.273 2.077 37.129 6.23 2.288.83 4.108 2.232 5.46 4.205 1.352 1.973 2.028 4.05 2.028 6.23 0 2.18-.988 4.308-2.964 6.385-1.976 2.076-3.9 3.115-5.772 3.115-1.872 0-4.16-.416-6.864-1.246-8.113-2.492-17.057-3.738-26.833-3.738-9.777 0-17.16 1.661-22.153 4.984-4.992 3.322-7.488 7.423-7.488 12.303 0 4.88 1.872 8.41 5.616 10.59 3.744 2.18 8.476 4.101 14.196 5.763 5.72 1.66 11.96 3.218 18.721 4.672 6.76 1.453 12.948 3.634 18.565 6.54 13.312 6.853 19.968 17.34 19.968 31.46 0 11.006-4.16 19.83-12.48 26.476-8.736 7.475-21.113 11.213-37.13 11.213-17.056 0-32.449-3.842-46.177-11.525-2.912-2.076-4.42-4.62-4.524-7.631-.104-3.011.832-5.607 2.808-7.787 1.976-2.18 4.004-3.27 6.084-3.27s4.784.726 8.112 2.18c9.777 4.36 20.593 6.54 32.45 6.54zm120.249.935c4.576 0 7.852-.363 9.828-1.09 1.976-.727 4.108-1.09 6.396-1.09 2.289 0 4.369.882 6.24 2.648 1.873 1.765 2.809 4.36 2.809 7.786 0 3.427-1.664 5.867-4.992 7.32-7.28 3.323-13.52 4.984-18.721 4.984-5.2 0-9.932-.26-14.197-.779-4.264-.519-8.372-1.92-12.324-4.205-9.36-5.399-14.04-14.95-14.04-28.656V78.008h-18.097c-3.12 0-4.784-1.661-4.992-4.984 0-1.453.832-2.803 2.496-4.049l34.633-33.951c1.456-1.454 2.912-2.232 4.368-2.336 1.456-.104 2.6.363 3.432 1.402.832 1.038 1.248 2.284 1.248 3.737v20.246h29.017c2.913 0 5.305.935 7.177 2.804 1.872 1.868 2.808 4.256 2.808 7.164 0 2.907-.936 5.295-2.808 7.164-1.872 1.868-4.264 2.803-7.177 2.803h-29.017v77.246c0 6.438 1.976 10.798 5.929 13.082 2.08 1.246 5.408 1.87 9.984 1.87zm99.968-114.624c19.761 0 35.674 6.23 47.738 18.69 12.065 12.666 17.889 28.966 17.473 48.901 0 20.142-5.824 36.443-17.473 48.902-12.064 12.46-27.977 18.689-47.738 18.689-19.968 0-35.777-6.23-47.425-18.689-12.065-12.459-18.097-28.76-18.097-48.902 0-20.35 6.032-36.65 18.097-48.902 11.648-12.459 27.457-18.689 47.425-18.689zm-28.549 103.567c4.057 3.634 8.633 6.281 13.729 7.943 5.096 1.66 10.036 2.491 14.82 2.491 4.785 0 9.673-.83 14.665-2.491 4.992-1.662 9.568-4.361 13.729-8.099 9.152-8.306 13.728-20.35 13.728-36.131 0-15.367-4.576-27.306-13.728-35.82-7.697-7.06-17.161-10.487-28.394-10.279-18.512 0-31.305 8.306-38.377 24.918-2.496 6.022-3.744 13.186-3.744 21.492 0 8.306 1.248 15.47 3.744 21.492 2.496 6.022 5.772 10.85 9.828 14.484zm226.178 12.303c1.664 2.077 2.496 4.62 2.496 7.631s-1.092 5.503-3.276 7.476c-2.184 1.973-4.629 2.959-7.333 2.959-4.16 0-7.696-1.557-10.608-4.672l-43.994-59.804-22.153 20.246v32.705c0 3.115-1.144 5.815-3.432 8.099-2.288 2.284-4.992 3.426-8.112 3.426s-5.824-1.142-8.112-3.426c-2.288-2.284-3.432-4.984-3.432-8.099V12.286c0-3.115 1.092-5.814 3.276-8.098 2.184-2.285 4.94-3.427 8.268-3.427 3.12 0 5.824 1.142 8.112 3.427 2.288 2.284 3.432 4.983 3.432 8.098v104.345l60.843-56.066c2.704-2.076 5.772-3.115 9.204-3.115 3.432 0 5.928 1.194 7.488 3.582 1.56 2.388 2.34 4.517 2.34 6.386 0 3.737-1.456 7.06-4.368 9.967l-36.817 33.017 46.178 61.05zm46.614-91.886c12.065-15.989 25.481-23.984 40.25-23.984h1.248c3.12 0 5.772 1.09 7.956 3.271 2.184 2.18 3.276 4.932 3.276 8.254 0 3.323-1.144 5.97-3.432 7.943-2.288 1.973-5.096 2.959-8.424 2.959h-1.248c-8.529 0-16.12 2.076-22.777 6.23-6.656 4.152-12.273 9.551-16.849 16.196v77.558c0 3.115-1.144 5.815-3.432 8.099-2.288 2.284-4.992 3.426-8.112 3.426s-5.824-1.142-8.113-3.426c-2.288-2.284-3.432-4.984-3.432-8.099V68.664c0-3.115 1.092-5.867 3.276-8.255 2.185-2.388 4.94-3.582 8.269-3.582 3.12 0 5.824 1.142 8.112 3.427 2.288 2.284 3.432 5.087 3.432 8.41v10.901z"/></g><path d="M188.174 53.96a18.832 18.832 0 0 0 7.185 1.414c10.416 0 18.86-8.43 18.86-18.827 0-.186-.003-.37-.008-.554 6.546-2.953 11.101-9.528 11.101-17.166C225.313 8.43 216.87 0 206.453 0c-2.768 0-5.397.595-7.766 1.665A18.819 18.819 0 0 0 190.923 0c-7.65 0-14.237 4.548-17.195 11.083-.185-.006-.37-.008-.555-.008-8.1 0-15.007 5.097-17.678 12.254a18.911 18.911 0 0 0-10.432 9.52c-6.237 2.985-10.576 9.292-10.715 16.624a7.752 7.752 0 0 0-3.049 11.438 7.708 7.708 0 0 0-1.392 4.43c0 .84.134 1.65.382 2.407a5.542 5.542 0 0 0 5.165 7.56c1.815 0 3.426-.87 4.438-2.215 2.172 0 4.136-.89 5.546-2.325.358.072.73.11 1.11.11 1.868 0 3.52-.921 4.525-2.333.7.078 1.41.119 2.131.119 5.128 0 9.777-2.043 13.177-5.358 1.784.602 3.695.928 5.683.928 7.139 0 13.294-4.208 16.111-10.275z" fill="#FFF"/></g></svg>