<svg width="256" height="107" viewBox="0 0 256 107" xmlns="http://www.w3.org/2000/svg"><title>stokr + smoke</title><g fill="none" fill-rule="evenodd"><g transform="translate(0 20)" fill="#A2A2A2"><rect x="49" y="14.5" width="20.5" height="20" rx="2"/><path d="M22.844 76.422c8.531 0 12.75-2.672 12.656-8.016 0-1.687-.844-3-2.531-3.937-1.688-.938-3.797-1.735-6.328-2.39a989.713 989.713 0 0 0-8.297-2.11c-3-.75-5.813-1.781-8.438-3.094-2.625-1.313-4.781-3.023-6.469-5.133-1.687-2.11-2.53-4.71-2.53-7.804 0-3.094.468-5.743 1.405-7.946.938-2.203 2.344-4.101 4.22-5.695 4.03-3.469 9.655-5.203 16.874-5.203 5.813 0 11.39.937 16.735 2.812a4.96 4.96 0 0 1 2.46 1.899c.61.89.915 1.828.915 2.812 0 .985-.446 1.945-1.336 2.883-.89.938-1.758 1.406-2.602 1.406-.844 0-1.875-.187-3.094-.562-3.656-1.125-7.687-1.688-12.093-1.688-4.407 0-7.735.75-9.985 2.25-2.25 1.5-3.375 3.352-3.375 5.555s.844 3.797 2.531 4.781c1.688.985 3.82 1.852 6.399 2.602 2.578.75 5.39 1.453 8.437 2.11 3.047.655 5.836 1.64 8.368 2.952 6 3.094 9 7.828 9 14.203 0 4.97-1.875 8.953-5.625 11.954-3.938 3.375-9.516 5.062-16.735 5.062-7.687 0-14.625-1.734-20.812-5.203-1.313-.938-1.992-2.086-2.04-3.445-.046-1.36.376-2.532 1.266-3.516s1.805-1.477 2.742-1.477c.938 0 2.157.328 3.657.985 4.406 1.969 9.281 2.953 14.625 2.953zm54.197.422c2.062 0 3.539-.164 4.43-.492a8.275 8.275 0 0 1 2.882-.493c1.031 0 1.969.399 2.813 1.196.843.797 1.265 1.968 1.265 3.515 0 1.547-.75 2.649-2.25 3.305-3.281 1.5-6.093 2.25-8.437 2.25-2.344 0-4.477-.117-6.399-.352-1.922-.234-3.773-.867-5.554-1.898-4.22-2.438-6.328-6.75-6.328-12.938V35.22h-8.157c-1.406 0-2.156-.75-2.25-2.25 0-.657.375-1.266 1.125-1.828l15.61-15.328c.656-.657 1.312-1.008 1.968-1.055.657-.047 1.172.164 1.547.633.375.468.563 1.03.563 1.687v9.14h13.078c1.312 0 2.39.423 3.234 1.266.844.844 1.266 1.922 1.266 3.235 0 1.312-.422 2.39-1.266 3.234-.844.844-1.922 1.266-3.234 1.266H69.869v34.875c0 2.906.89 4.875 2.672 5.906.937.563 2.437.844 4.5.844zm45.056-51.75c8.906 0 16.078 2.812 21.516 8.437 5.437 5.719 8.062 13.078 7.875 22.078 0 9.094-2.625 16.453-7.875 22.078-5.438 5.626-12.61 8.438-21.516 8.438-9 0-16.125-2.812-21.375-8.438-5.438-5.625-8.156-12.984-8.156-22.078 0-9.187 2.718-16.546 8.156-22.078 5.25-5.625 12.375-8.437 21.375-8.437zM109.23 71.852a17.141 17.141 0 0 0 6.187 3.585c2.297.75 4.524 1.126 6.68 1.126 2.156 0 4.36-.375 6.61-1.126 2.25-.75 4.312-1.968 6.187-3.656 4.125-3.75 6.187-9.187 6.187-16.312 0-6.938-2.062-12.328-6.187-16.172-3.469-3.188-7.735-4.735-12.797-4.64-8.344 0-14.11 3.75-17.297 11.25-1.125 2.718-1.688 5.952-1.688 9.702s.563 6.985 1.688 9.703c1.125 2.72 2.602 4.899 4.43 6.54zm101.939 5.554c.75.938 1.125 2.086 1.125 3.446 0 1.359-.492 2.484-1.477 3.375-.984.89-2.086 1.335-3.305 1.335-1.875 0-3.468-.703-4.78-2.109l-19.829-27-9.984 9.14V80.36c0 1.407-.516 2.625-1.547 3.657-1.031 1.03-2.25 1.546-3.656 1.546-1.407 0-2.625-.515-3.657-1.546-1.03-1.032-1.547-2.25-1.547-3.657V5.547c0-1.406.493-2.625 1.477-3.656.984-1.032 2.227-1.547 3.727-1.547 1.406 0 2.625.515 3.656 1.547 1.031 1.03 1.547 2.25 1.547 3.656v47.11l27.422-25.313a6.626 6.626 0 0 1 4.148-1.407c1.547 0 2.672.54 3.375 1.618.703 1.078 1.055 2.039 1.055 2.883 0 1.687-.656 3.187-1.969 4.5l-16.594 14.906 20.813 27.562zm21.01-41.484c5.437-7.219 11.483-10.828 18.14-10.828h.562c1.407 0 2.602.492 3.586 1.476.985.985 1.477 2.227 1.477 3.727s-.516 2.695-1.547 3.586c-1.031.89-2.297 1.336-3.797 1.336h-.563c-3.843 0-7.265.937-10.265 2.812-3 1.875-5.531 4.313-7.594 7.313v35.015c0 1.407-.515 2.625-1.547 3.657-1.031 1.03-2.25 1.546-3.656 1.546-1.406 0-2.625-.515-3.656-1.546-1.032-1.032-1.547-2.25-1.547-3.657V31c0-1.406.492-2.648 1.476-3.727.985-1.078 2.227-1.617 3.727-1.617 1.406 0 2.625.516 3.656 1.547 1.032 1.031 1.547 2.297 1.547 3.797v4.922z"/></g><path d="M85.262 24.361a8.5 8.5 0 0 0 11.735-8.111A8.5 8.5 0 1 0 90 .752h-.001A8.47 8.47 0 0 0 86.5 0a8.502 8.502 0 0 0-7.75 5.004 8.503 8.503 0 0 0-8.218 5.529 8.529 8.529 0 0 0-4.701 4.298A8.501 8.501 0 0 0 61 22.336a3.5 3.5 0 0 0-1.374 5.164 3.484 3.484 0 0 0-.627 2c0 .38.06.745.172 1.087A2.5 2.5 0 0 0 63.5 33a3.49 3.49 0 0 0 2.5-1.05 2.497 2.497 0 0 0 2.54-1.004 8.472 8.472 0 0 0 6.9-2.365A7.99 7.99 0 0 0 78 29c3.218 0 5.992-1.9 7.262-4.639z" fill="#FFF"/></g></svg>