<svg width="40" height="73" viewBox="0 0 40 73" xmlns="http://www.w3.org/2000/svg"><title>Rectangle 1</title><path d="M20.268.954A1.999 1.999 0 0 0 18.997.5H2.503A1.995 1.995 0 0 0 .5 2.49v16.02c0 .124.012.246.034.364a1.707 1.707 0 0 0-.003.095c.094 1.5.844 2.25 2.25 2.25h8.156v35.718c0 6.188 2.11 10.5 6.329 12.938 1.78 1.031 3.632 1.664 5.554 1.898 1.922.235 4.055.352 6.399.352 2.344 0 5.156-.75 8.437-2.25 1.5-.656 2.25-1.758 2.25-3.305 0-1.547-.422-2.718-1.265-3.515-.844-.797-1.782-1.196-2.813-1.196a8.275 8.275 0 0 0-2.883.493c-.89.328-2.367.492-4.43.492-2.062 0-3.562-.281-4.5-.844-1.78-1.031-2.671-3-2.671-5.906V21.219h13.078c1.312 0 2.39-.422 3.234-1.266.844-.844 1.266-1.922 1.266-3.234 0-1.313-.422-2.39-1.266-3.235-.844-.843-1.922-1.265-3.234-1.265H21.344v-9.14c0-.657-.188-1.22-.563-1.688a1.685 1.685 0 0 0-.513-.437z" fill="#4D5E63" fill-rule="evenodd"/></svg>